<?xml version="1.0" encoding="UTF-8" standalone="no"?>
<!-- Created with Inkscape (http://www.inkscape.org/) -->

<svg
   xmlns:dc="http://purl.org/dc/elements/1.1/"
   xmlns:cc="http://creativecommons.org/ns#"
   xmlns:rdf="http://www.w3.org/1999/02/22-rdf-syntax-ns#"
   xmlns:svg="http://www.w3.org/2000/svg"
   xmlns="http://www.w3.org/2000/svg"
   xmlns:sodipodi="http://sodipodi.sourceforge.net/DTD/sodipodi-0.dtd"
   xmlns:inkscape="http://www.inkscape.org/namespaces/inkscape"
   width="246.94444mm"
   height="32.72858mm"
   viewBox="0 0 874.99999 115.96741"
   id="svg2"
   version="1.1"
   inkscape:version="0.91 r13725"
   sodipodi:docname="logo.svg"
   inkscape:export-filename="E:\Tiger\OneDrive\Manipulator\Assets\Misc\logo.png"
   inkscape:export-xdpi="359.96701"
   inkscape:export-ydpi="359.96701">
  <defs
     id="defs4" />
  <sodipodi:namedview
     id="base"
     pagecolor="#ffffff"
     bordercolor="#666666"
     borderopacity="1.0"
     inkscape:pageopacity="0.0"
     inkscape:pageshadow="2"
     inkscape:zoom="1.4142136"
     inkscape:cx="337.37696"
     inkscape:cy="51.466337"
     inkscape:document-units="px"
     inkscape:current-layer="layer1"
     showgrid="false"
     fit-margin-top="0"
     fit-margin-left="0"
     fit-margin-right="0"
     fit-margin-bottom="0"
     inkscape:window-width="1920"
     inkscape:window-height="1017"
     inkscape:window-x="1432"
     inkscape:window-y="316"
     inkscape:window-maximized="1" />
  <metadata
     id="metadata7">
    <rdf:RDF>
      <cc:Work
         rdf:about="">
        <dc:format>image/svg+xml</dc:format>
        <dc:type
           rdf:resource="http://purl.org/dc/dcmitype/StillImage" />
        <dc:title />
      </cc:Work>
    </rdf:RDF>
  </metadata>
  <g
     inkscape:label="Layer 1"
     inkscape:groupmode="layer"
     id="layer1"
     transform="translate(76.303575,-471.90045)">
    <g
       style="font-style:normal;font-variant:normal;font-weight:normal;font-stretch:normal;font-size:125px;line-height:125%;font-family:Akashi;-inkscape-font-specification:Akashi;letter-spacing:0px;word-spacing:0px;fill:#acc0c1;fill-opacity:1;stroke:none;stroke-width:1px;stroke-linecap:butt;stroke-linejoin:miter;stroke-opacity:1"
       id="text4136"
       transform="matrix(0.84828403,0,0,1,-81.075231,141.35095)">
      <path
         d="m 66.660225,367.17059 q 12.207032,0 12.207032,12.20703 l 0,30.51758 q 0,12.20703 -12.207032,12.20703 l -48.828125,0 q -12.2070309,0 -12.2070309,-12.20703 l 0,-67.13867 q 0,-12.20703 12.2070309,-12.20703 l 61.035157,0 0,18.31055 -54.931641,0 0,54.93164 36.621094,0 0,-18.31055 -24.353028,0 6.103516,-18.31055 24.353027,0 0,0 z"
         id="path5902"
         inkscape:connector-curvature="0" />
      <path
         d="m 91.074288,422.10223 0,-54.93164 q 0,-12.20703 12.207032,-12.20703 l 36.56006,0 -6.10352,18.31055 -24.35303,0 0,48.82812 -18.310542,0 z"
         id="path5904"
         inkscape:connector-curvature="0" />
      <path
         d="m 146.00593,367.17059 q 0,-12.20703 12.20703,-12.20703 l 48.82812,0 q 12.20704,0 12.20704,12.20703 l 0,54.93164 -18.31055,0 -0.061,-48.82812 -36.56005,0 0,30.51758 30.51757,0 -6.10351,18.31054 -30.45655,0 q -12.26806,0 -12.26806,-12.20703 l 0,-42.72461 z"
         id="path5906"
         inkscape:connector-curvature="0" />
      <path
         d="m 231.45515,367.17059 q 0,-12.20703 12.20703,-12.20703 l 48.82812,0 q 12.20703,0 12.20703,12.20703 l 0,42.72461 q 0,12.20703 -12.20703,12.20703 l -36.62109,0 6.10352,-18.31054 24.41406,0 0,-30.51758 -36.6211,0 0,73.24219 -18.31054,0 0,-79.34571 0,0 z"
         id="path5908"
         inkscape:connector-curvature="0" />
      <path
         d="m 316.90437,367.17059 q 0,-12.20703 12.20703,-12.20703 l 48.82812,0 q 12.20703,0 12.20703,12.20703 l 0,42.72461 q 0,12.20703 -12.20703,12.20703 l -36.62109,0 6.10351,-18.31054 24.41407,0 0,-30.51758 -36.6211,0 0,73.24219 -18.31054,0 0,-79.34571 0,0 z"
         id="path5910"
         inkscape:connector-curvature="0" />
      <path
         d="m 402.35358,422.10223 0,-91.55273 18.31055,0 0,91.55273 -18.31055,0 z"
         id="path5912"
         inkscape:connector-curvature="0" />
      <path
         d="m 451.18171,330.5495 -6.10352,18.31055 -12.20703,0 0,-18.31055 18.31055,0 z m 0,91.55273 0,-67.13867 -18.31055,0 0,67.13867 18.31055,0 z"
         id="path5914"
         inkscape:connector-curvature="0" />
      <path
         d="m 463.38874,422.10223 0,-54.93164 q 0,-12.20703 12.20703,-12.20703 l 48.88916,0 q 12.20703,0 12.20703,12.20703 l 0,54.93164 -18.31054,0 -0.061,-48.82812 -36.62109,0 0,48.82812 -18.31055,0 z"
         id="path5916"
         inkscape:connector-curvature="0" />
      <path
         d="m 609.87312,354.96356 q 12.20703,0 12.20703,12.20703 l 0,67.13868 q 0,12.20703 -12.20703,12.20703 l -36.6211,0 6.10352,-18.31055 24.41406,0 0,-54.93164 -36.62109,0 0,30.51758 30.51757,0 -6.10351,18.31054 -30.51758,0 q -12.20703,0 -12.20703,-12.20703 l 0,-42.72461 q 0,-12.20703 12.20703,-12.20703 l 48.82813,0 0,0 z"
         id="path5918"
         inkscape:connector-curvature="0" />
      <path
         d="m 738.04694,354.96356 q 12.20704,0 12.20704,12.20703 l 0,67.13868 q 0,12.20703 -12.20704,12.20703 l -36.62109,0 6.10352,-18.31055 24.41406,0 0,-54.93164 -36.6211,0 0,30.51758 30.51758,0 -6.10351,18.31054 -30.51758,0 q -12.20703,0 -12.20703,-12.20703 l 0,-42.72461 q 0,-12.20703 12.20703,-12.20703 l 48.82812,0 0,0 z"
         id="path5920"
         inkscape:connector-curvature="0" />
      <path
         d="m 762.46101,367.17059 q 0,-12.20703 12.20703,-12.20703 l 48.82812,0 q 12.20703,0 12.20703,12.20703 l 0,54.93164 -18.31054,0 -0.061,-48.82812 -36.56006,0 0,30.51758 30.51758,0 -6.10351,18.31054 -30.45655,0 q -12.26806,0 -12.26806,-12.20703 l 0,-42.72461 z"
         id="path5922"
         inkscape:connector-curvature="0" />
      <path
         d="m 890.69587,373.27411 -24.4751,0 0,48.82812 -18.31054,0 0,-54.93164 q 0,-12.20703 12.20703,-12.20703 l 79.3457,0 q 12.20703,0 12.20703,12.20703 l 0,54.93164 -18.31055,0 -0.061,-48.82812 -24.29199,0 0,48.82812 -18.31055,0 0,-48.82812 z"
         id="path5924"
         inkscape:connector-curvature="0" />
      <path
         d="m 1024.9122,354.96356 q 12.207,0 12.207,12.20703 l 0,18.31055 q 0,12.20703 -12.207,12.20703 l -36.62112,0 0,-18.31055 30.51762,0 0,-6.10351 -36.62113,0 0,30.51758 42.66353,0 -5.9814,18.31054 -42.78565,0 q -12.20703,0 -12.20703,-12.20703 l 0,-42.72461 q 0,-12.20703 12.20703,-12.20703 l 48.82815,0 0,0 z"
         id="path5926"
         inkscape:connector-curvature="0" />
    </g>
    <path
       style="fill:#b4c6c7;fill-opacity:1;fill-rule:evenodd;stroke:none;stroke-width:1px;stroke-linecap:butt;stroke-linejoin:miter;stroke-opacity:1"
       d="m 108.73047,167.67773 -9.978517,14.39844 8.412107,0 c -0.16565,-4.27895 6.87006,-14.006 1.56641,-14.39844 z m -5.35742,0.0899 c -3.423195,1.5e-4 -6.846332,0.005 -10.269534,0.004 l -18.619141,26.06836 0,14.95118 11.533203,-16.37696 0,-10.33789 7.279297,0 10.076175,-14.30859 z m -17.355472,32.68164 -11.533203,16.64062 0,13.81446 c 6.180642,0.003 14.421099,2.06564 11.533203,-7 l 0,-23.45508 z"
       transform="translate(-76.303575,330.5495)"
       id="path6136-1"
       inkscape:connector-curvature="0" />
    <path
       style="fill:#b4c6c7;fill-opacity:1;fill-rule:evenodd;stroke:none;stroke-width:1px;stroke-linecap:butt;stroke-linejoin:miter;stroke-opacity:1"
       d="m 57.425781,143.19922 c -0.384927,0.003 -0.815964,0.0529 -1.296875,0.15234 -0.846351,4.4e-4 -1.692709,-2.6e-4 -2.539062,0 l -9.917969,14.31055 16.457031,0 c -1.415292,-4.30675 3.070778,-14.51475 -2.703125,-14.46289 z m -8.859375,0.1543 c -3.340503,-5e-5 -6.680971,0.003 -10.021484,0.002 l -10.21875,14.30664 10.164062,0 10.076172,-14.30859 z M 13.53125,178.375 1.9472656,194.59375 c -0.014426,4.9653 -0.00495,9.92954 0.048828,14.89063 l 11.5351564,-16.38086 0,-14.72852 z m 22.539062,1.06445 c -5.342733,-0.0804 -4.903401,7.48239 -6.707031,12.08008 -1.319063,5.46759 9.34035,1.87449 14.326172,2.57227 l 9.863281,-13.97266 c -4.62661,-1.01735 -10.28481,0.6325 -14.816406,-0.14648 -1.022689,-0.35443 -1.902768,-0.52172 -2.666016,-0.53321 z M 13.53125,201.15039 2.1308594,217.59766 c 0.052591,2.28111 0.109433,4.56249 0.1914062,6.84179 0.745147,7.46911 9.6579154,6.85859 15.0683594,6.46485 0.105918,-0.004 0.212417,-0.002 0.318359,-0.006 l 10.095704,-14.30469 -14.273438,0 0,-15.44336 z"
       transform="translate(-76.303575,330.5495)"
       id="path6136"
       inkscape:connector-curvature="0" />
    <circle
       style="fill:#a1b1b1;fill-opacity:1;stroke:none;stroke-width:2;stroke-linecap:round;stroke-linejoin:round;stroke-miterlimit:4;stroke-dasharray:none;stroke-opacity:1"
       id="path6065"
       cx="-68.303574"
       cy="555.86725"
       r="3" />
    <circle
       style="fill:#a1b1b1;fill-opacity:1;stroke:none;stroke-width:2;stroke-linecap:round;stroke-linejoin:round;stroke-miterlimit:4;stroke-dasharray:none;stroke-opacity:1"
       id="path6065-7"
       cx="-22.303576"
       cy="555.86725"
       r="3" />
    <circle
       style="fill:#a1b1b1;fill-opacity:1;stroke:none;stroke-width:2;stroke-linecap:round;stroke-linejoin:round;stroke-miterlimit:4;stroke-dasharray:none;stroke-opacity:1"
       id="path6065-2"
       cx="-22.303576"
       cy="482.86725"
       r="3" />
    <circle
       style="fill:#a1b1b1;fill-opacity:1;stroke:none;stroke-width:2;stroke-linecap:round;stroke-linejoin:round;stroke-miterlimit:4;stroke-dasharray:none;stroke-opacity:1"
       id="path6065-8"
       cx="-68.303574"
       cy="482.86725"
       r="3" />
    <circle
       style="fill:#a1b1b1;fill-opacity:1;stroke:none;stroke-width:2;stroke-linecap:round;stroke-linejoin:round;stroke-miterlimit:4;stroke-dasharray:none;stroke-opacity:1"
       id="path6065-7-0"
       cx="3.696425"
       cy="555.86725"
       r="3" />
    <path
       style="fill:#b4c6c7;fill-opacity:1;fill-rule:evenodd;stroke:none;stroke-width:1px;stroke-linecap:butt;stroke-linejoin:miter;stroke-opacity:1"
       d="m 168.66016,167.62109 c -2.78188,-0.007 -5.63046,0.29269 -7.83985,0.14453 -1.71744,10e-4 -3.43489,0.002 -5.15234,0.002 l -9.91602,14.30859 21.87305,0 c 0.002,1.67188 0.004,3.34375 0.006,5.01563 l 10.63672,-15.06836 c -1.57553,-3.71718 -5.51822,-4.39267 -9.60742,-4.40235 z m -18.28711,0.14844 c -3.42321,-0.001 -6.84635,0.003 -10.26953,0.004 l -18.94922,26.52734 c -0.063,5.08101 -0.19959,10.16828 -0.20118,15.24414 l 11.66211,-16.56054 0,-10.90821 7.68165,0 10.07617,-14.30664 z m -17.75782,33.25977 -11.49218,16.58008 c 0.10738,2.63517 0.25994,5.26656 0.53515,7.88671 1.91005,6.69967 9.16804,5.5854 15.08985,5.34571 l 10.2207,-14.47852 c -5.17069,-0.20401 -12.90875,2.1604 -14.35352,-1.76953 l 0,-13.56445 z"
       transform="translate(-76.303575,330.5495)"
       id="path6136-5"
       inkscape:connector-curvature="0" />
    <path
       style="fill:#b4c6c7;fill-opacity:1;fill-rule:evenodd;stroke:none;stroke-width:1px;stroke-linecap:butt;stroke-linejoin:miter;stroke-opacity:1"
       d="m 239.33203,167.66992 c -2.83979,0.15984 -5.69942,0.48319 -8.02734,0.0957 -0.68424,6.2e-4 -1.36849,-3.2e-4 -2.05274,0 l -10.22265,14.31055 10.16992,0 10.14453,-14.40625 c -0.004,2.2e-4 -0.008,-2.2e-4 -0.0117,0 z m 4.97461,0.0918 -9.92187,14.31445 5.77929,0 0,28.25977 11.56641,-16.38672 c 0.21344,-7.28405 0.39266,-14.56446 -0.90235,-21.67188 -1.33202,-2.9961 -3.73142,-4.14028 -6.52148,-4.51562 z m -39.20703,33.8164 -11.5332,16.14649 0,14.94922 11.5332,-16.37695 c 0,-4.90626 0,-9.8125 0,-14.71876 z m 13.86719,15.01563 c 0.17897,4.62298 -8.05897,15.61277 -0.0469,14.31055 2.25306,-0.16173 4.52893,-0.17012 6.8125,-0.12305 l 10.01367,-14.1875 -16.77929,0 z m -13.86719,7.73633 -11.5332,16.64062 0,14.34766 c 6.18064,0.003 14.42109,2.06563 11.5332,-7 0,-7.99609 0,-15.99219 0,-23.98828 z"
       transform="translate(-76.303575,330.5495)"
       id="path6136-3"
       inkscape:connector-curvature="0" />
    <path
       style="fill:#b4c6c7;fill-opacity:1;fill-rule:evenodd;stroke:none;stroke-width:1px;stroke-linecap:butt;stroke-linejoin:miter;stroke-opacity:1"
       d="m 311.30664,167.72461 c -2.33134,0.1278 -4.6255,0.30335 -6.51562,0.041 -1.17969,9.2e-4 -2.35938,0.002 -3.53907,0.002 l -10.22265,14.30859 10.16992,0 10.10742,-14.35156 z m 5.02344,0.002 -9.94531,14.34961 6.26562,0 0,27.57031 11.58008,-16.40429 c 0.1724,-6.88352 0.27683,-13.75966 -0.75977,-20.51758 -1.22789,-3.52357 -3.96298,-4.6883 -7.14062,-4.99805 z m -38.7461,33.17383 -11.53125,16.14453 0,14.93946 11.53125,-16.375 0,-14.70899 z m 13.86719,15.69336 c 0.17897,4.62298 -8.05897,15.61277 -0.0469,14.31055 2.09342,-0.14866 4.20806,-0.16014 6.32812,-0.125 l 10.01367,-14.18555 -16.29492,0 z m -13.86719,7.03711 -11.53125,16.63867 0,15.04883 c 6.18043,0.003 14.41922,2.06506 11.53125,-7 l 0,-24.6875 z"
       transform="translate(-76.303575,330.5495)"
       id="path6136-14"
       inkscape:connector-curvature="0" />
    <path
       style="fill:#b4c6c7;fill-opacity:1;fill-rule:evenodd;stroke:none;stroke-width:1px;stroke-linecap:butt;stroke-linejoin:miter;stroke-opacity:1"
       d="m 350.07031,148.2207 -11.5332,16.14649 0,14.52929 11.5332,-16.3789 0,-14.29688 z m 0,21.85352 -11.5332,16.63867 0,35.92773 11.5332,-16.33789 0,-36.22851 z"
       transform="translate(-76.303575,330.5495)"
       id="path6136-8"
       inkscape:connector-curvature="0" />
    <path
       style="fill:#b4c6c7;fill-opacity:1;fill-rule:evenodd;stroke:none;stroke-width:1px;stroke-linecap:butt;stroke-linejoin:miter;stroke-opacity:1"
       d="m 375.95703,174.97852 -11.53125,16.14453 0,14.91015 11.53125,-16.37304 0,-14.68164 z m 0,22.67187 -11.53125,16.63867 0,16.61524 c 6.18043,0.003 14.41922,2.06506 11.53125,-7 l 0,-26.25391 z"
       transform="translate(-76.303575,330.5495)"
       id="path6136-2"
       inkscape:connector-curvature="0" />
    <path
       style="fill:#b4c6c7;fill-opacity:1;fill-rule:evenodd;stroke:none;stroke-width:1px;stroke-linecap:butt;stroke-linejoin:miter;stroke-opacity:1"
       d="m 438.5293,167.62109 c -3.28156,-0.0259 -6.77276,0.47088 -9.42578,0.14453 -1.81184,10e-4 -3.62369,0.002 -5.43555,0.002 l -9.91602,14.30859 23.15625,0 c 10e-4,1.06706 0.003,2.13412 0.004,3.20117 l 10.0625,-14.25586 c -1.76777,-2.76023 -4.98867,-3.37306 -8.44531,-3.40039 z m -20.15625,0.14844 c -3.42321,-0.001 -6.84635,0.003 -10.26953,0.004 l -17.79102,24.9082 0,14.93359 11.5332,-16.37695 0,-9.16211 6.45118,0 10.07617,-14.30664 z m -16.52735,31.48438 -11.5332,16.64062 0,15.00977 c 6.18064,0.003 14.4211,2.06564 11.5332,-7 l 0,-24.65039 z"
       transform="translate(-76.303575,330.5495)"
       id="path6136-56"
       inkscape:connector-curvature="0" />
    <path
       style="fill:#b4c6c7;fill-opacity:1;fill-rule:evenodd;stroke:none;stroke-width:1px;stroke-linecap:butt;stroke-linejoin:miter;stroke-opacity:1"
       d="m 508.34375,167.66992 c -2.09592,0.0755 -4.13676,0.2105 -5.80859,0.0957 -1.42838,10e-4 -2.85677,0.002 -4.28516,0.002 l -10.2207,14.30859 10.16992,0 10.14453,-14.40625 z m 4.94922,0.10938 -9.9082,14.29687 6.01171,0 0,27.92969 11.60938,-16.44727 c -0.0254,-6.63719 -0.14826,-13.26697 -0.51758,-19.8789 -0.80831,-4.08655 -3.73267,-5.48424 -7.19531,-5.90039 z m -38.96289,33.47656 -11.49414,16.0918 c 0.10648,2.72224 0.25853,5.44139 0.53515,8.14843 0.40598,1.44645 1.06796,2.5214 1.90821,3.32618 l 9.47461,-13.45508 c -0.17309,-0.22596 -0.31653,-0.4817 -0.42383,-0.77344 l 0,-13.33789 z m 20.45703,14.82812 c -1.13821,-0.0312 -2.53466,0.13398 -4.21094,0.50977 -2.969,-0.70687 -7.67792,0.32644 -11.30664,0.2793 l -9.64844,13.91992 c 4.03056,0.688 9.03787,-0.32815 12.56836,0.11133 3.75785,-0.83376 9.75664,1.29352 12.79883,-0.48633 l 1.71094,-2.42188 c 0.13327,-0.54318 0.20198,-1.17094 0.1914,-1.90429 2.9204,-6.07524 2.82872,-9.87252 -2.10351,-10.00782 z"
       transform="translate(-76.303575,330.5495)"
       id="path6136-4"
       inkscape:connector-curvature="0" />
    <path
       style="fill:#b4c6c7;fill-opacity:1;fill-rule:evenodd;stroke:none;stroke-width:1px;stroke-linecap:butt;stroke-linejoin:miter;stroke-opacity:1"
       d="m 616.32422,167.6875 c -1.83149,0.0755 -3.58766,0.17686 -5.06055,0.0781 -1.67121,0.001 -3.34244,0.002 -5.01367,0.002 l -10.2207,14.30859 10.16992,0 10.13281,-14.38867 c -0.003,1.1e-4 -0.005,-1.1e-4 -0.008,0 z m 5.01172,0.0312 -9.95117,14.35742 6.73828,0 0,26.90039 11.60547,-16.43945 c -0.0373,-6.29595 -0.16506,-12.58451 -0.51368,-18.85742 -0.85446,-4.34288 -4.11938,-5.64312 -7.8789,-5.96094 z m -38.27735,32.51758 -11.54297,16.16015 c 0.1001,3.04166 0.26683,6.07733 0.58399,9.09961 0.33306,1.19606 0.84628,2.1362 1.49023,2.88282 l 9.5625,-13.57813 c -0.0313,-0.069 -0.0668,-0.13375 -0.0937,-0.20703 l 0,-14.35742 z m 20.45508,15.84765 c -1.13821,-0.0312 -2.53465,0.13398 -4.21094,0.50977 -3.1671,-0.75416 -8.31349,0.47108 -12.01562,0.25195 l -9.57617,13.81641 c 4.1322,0.93192 9.50262,-0.20463 13.20703,0.24219 3.37808,-0.74954 8.55548,0.87925 11.7793,-0.0742 l 2.90429,-4.11524 c 0.0102,-0.20026 0.0188,-0.40518 0.0156,-0.62304 2.92038,-6.07524 2.82872,-9.87252 -2.10352,-10.00782 z"
       transform="translate(-76.303575,330.5495)"
       id="path6136-18"
       inkscape:connector-curvature="0" />
    <path
       style="fill:#b4c6c7;fill-opacity:1;fill-rule:evenodd;stroke:none;stroke-width:1px;stroke-linecap:butt;stroke-linejoin:miter;stroke-opacity:1"
       d="m 692.17578,167.61914 c -3.28558,-0.0296 -6.78083,0.46564 -9.42578,0.14648 -1.694,10e-4 -3.38801,0.002 -5.08203,0.002 l -9.91602,14.30859 22.80274,0 c 10e-4,1.23373 0.003,2.46745 0.004,3.70117 l 10.22852,-14.49023 c -1.72303,-2.9816 -5.04263,-3.63587 -8.61133,-3.66797 z m -19.80273,0.15039 c -3.42321,-0.001 -6.84635,0.003 -10.26953,0.004 l -18.00977,25.21289 c -0.0468,5.06967 -0.17409,10.1471 -0.19531,15.21484 l 11.64453,-16.5332 0,-9.5918 6.75391,0 10.07617,-14.30664 z m -16.83008,31.92188 -11.53516,16.64062 c 0.0996,3.0628 0.26566,6.12049 0.58008,9.16406 1.80033,6.32745 8.41008,5.67767 14.13281,5.38477 l 10.25391,-14.52539 c -5.12442,0.0604 -12.06994,1.9406 -13.43164,-1.76172 l 0,-14.90234 z"
       transform="translate(-76.303575,330.5495)"
       id="path6136-39"
       inkscape:connector-curvature="0" />
    <path
       style="fill:#b4c6c7;fill-opacity:1;fill-rule:evenodd;stroke:none;stroke-width:1px;stroke-linecap:butt;stroke-linejoin:miter;stroke-opacity:1"
       d="m 790.54102,167.61914 c -2.22474,-0.0186 -4.53164,0.19586 -6.61914,0.24024 l -9.85352,14.21679 14.85937,0 c 0.005,5.05208 0.0104,10.10417 0.0156,15.15625 l 11.45898,-16.23437 c -0.10662,-2.61642 -0.24514,-5.22942 -0.46484,-7.83594 -1.29608,-4.60797 -5.17465,-5.50772 -9.39648,-5.54297 z m -11.71485,0.14648 c -3.38281,10e-4 -6.76561,0.002 -10.14844,0.002 l -15.88671,22.24414 0,14.72266 11.53125,-16.37305 0,-6.28516 4.42578,0 10.07812,-14.31055 z m -14.5039,28.37305 -11.53125,16.63672 0,18.12891 c 6.18044,0.003 14.41923,2.06506 11.53125,-7 l 0,-27.76563 z"
       transform="translate(-76.303575,330.5495)"
       id="path6136-0"
       inkscape:connector-curvature="0" />
    <path
       style="fill:#b4c6c7;fill-opacity:1;fill-rule:evenodd;stroke:none;stroke-width:1px;stroke-linecap:butt;stroke-linejoin:miter;stroke-opacity:1"
       d="m 833.10156,167.77734 -18.14844,25.40821 c -0.0499,5.07204 -0.17936,10.15295 -0.19921,15.22265 l 11.64843,-16.54101 0,-9.79102 6.89454,0 10.07031,-14.29883 c -3.42192,1.1e-4 -6.84374,-0.002 -10.26563,0 z m 15.56055,0 -9.91016,14.29883 22.71485,0 c 0.16225,1.18182 0.27606,2.31314 0.32031,3.37695 l 9.86133,-13.96874 c -1.15017,-2.23384 -3.11346,-3.76064 -6.41602,-3.70704 -5.52331,-0.008 -11.04682,0.002 -16.57031,0 z m -7.16602,24.23633 c -2.33531,0.0258 -4.43093,0.29197 -5.91797,1.16602 1.20601,4.8975 -3.5616,15.76864 5,13.31054 2.13174,-0.15054 4.28437,-0.15852 6.44336,-0.11914 l 9.64258,-13.66015 c -0.91582,-0.0274 -1.96304,-0.18544 -3.19726,-0.53125 -3.52002,0.41512 -8.07851,-0.20897 -11.97071,-0.16602 z m -15.09375,7.88086 -11.5332,16.64063 c 0.1012,2.99882 0.26537,5.99241 0.57617,8.97265 1.79436,6.38018 8.52511,5.65874 14.27735,5.3711 l 10.08203,-14.28516 -13.40235,0 0,-16.69922 z"
       transform="translate(-76.303575,330.5495)"
       id="path6136-35"
       inkscape:connector-curvature="0" />
    <path
       style="font-style:normal;font-variant:normal;font-weight:normal;font-stretch:normal;font-size:medium;line-height:125%;font-family:Akashi;-inkscape-font-specification:Akashi;letter-spacing:0px;word-spacing:0px;fill:#bccccd;fill-opacity:1;stroke:none;stroke-width:1px;stroke-linecap:butt;stroke-linejoin:miter;stroke-opacity:1"
       d="M 10.355469,141.35156 C 3.4521147,141.35156 0,145.42057 0,153.55859 l 0,3 c 0,-8.13802 3.4521087,-12.20703 10.355469,-12.20703 l 51.77539,0 0,-3 -51.77539,0 z m 326.183591,0 0,3 15.53125,0 0,-3 -15.53125,0 z m 25.88672,0 0,3 14.6836,0 0.8496,-3 -15.5332,0 z M 82.839844,165.76562 c -6.903356,10e-6 -10.355469,4.06902 -10.355469,12.20704 l 0,3 c 0,-8.13802 3.452119,-12.20703 10.355469,-12.20704 l 30.164066,0 0.84961,-3 -31.013676,0 z m 46.597656,0 c -6.90335,10e-6 -10.35547,4.06902 -10.35547,12.20704 l 0,3 c 0,-8.13802 3.45212,-12.20703 10.35547,-12.20704 l 41.41992,0 c 6.90336,10e-6 10.35547,4.06902 10.35547,12.20704 l 0,-3 c 0,-8.13802 -3.4521,-12.20703 -10.35547,-12.20704 l -41.41992,0 z m 72.48633,0 c -6.90337,10e-6 -10.35547,4.06902 -10.35547,12.20704 l 0,3 c 0,-8.13802 3.4521,-12.20703 10.35547,-12.20704 l 41.41992,0 c 6.90335,10e-6 10.35352,4.06902 10.35352,12.20704 l 0,-3 c 0,-8.13802 -3.45017,-12.20703 -10.35352,-12.20704 l -41.41992,0 z m 72.48437,0 c -6.90336,10e-6 -10.35547,4.06902 -10.35547,12.20704 l 0,3 c 0,-8.13802 3.4521,-12.20703 10.35547,-12.20704 l 41.41992,0 c 6.90334,10e-6 10.35547,4.06902 10.35547,12.20704 l 0,-3 c 0,-8.13802 -3.45213,-12.20703 -10.35547,-12.20704 l -41.41992,0 z m 88.01758,0 0,3 15.5332,0 0,-3 -15.5332,0 z m 36.24219,0 c -6.90335,10e-6 -10.35352,4.06902 -10.35352,12.20704 l 0,3 c 0,-8.13802 3.45017,-12.20703 10.35352,-12.20704 l 41.47265,0 c 6.90337,10e-6 10.35547,4.06902 10.35547,12.20704 l 0,-3 c 0,-8.13802 -3.45211,-12.20703 -10.35547,-12.20704 l -41.47265,0 z m 72.48633,0 c -6.90336,10e-6 -10.35547,4.06902 -10.35547,12.20704 l 0,3 c 0,-8.13802 3.45211,-12.20703 10.35547,-12.20704 l 41.41992,0 c 6.90336,10e-6 10.35547,4.06902 10.35547,12.20704 l 0,-3 c 0,-8.13802 -3.45212,-12.20703 -10.35547,-12.20704 l -41.41992,0 z m 108.72656,0 c -6.90334,10e-6 -10.35352,4.06902 -10.35352,12.20704 l 0,3 c 0,-8.13802 3.45019,-12.20703 10.35352,-12.20704 l 41.42187,0 c 6.90337,10e-6 10.35352,4.06902 10.35352,12.20704 l 0,-3 c 0,-8.13802 -3.45016,-12.20703 -10.35352,-12.20704 l -41.42187,0 z m 72.48633,0 c -6.90337,10e-6 -10.35547,4.06902 -10.35547,12.20704 l 0,3 c 0,-8.13802 3.4521,-12.20703 10.35547,-12.20704 l 41.41992,0 c 6.90335,10e-6 10.35547,4.06902 10.35547,12.20704 l 0,-3 c 0,-8.13802 -3.45212,-12.20703 -10.35547,-12.20704 l -41.41992,0 z m 72.48437,0 c -6.90335,10e-6 -10.35547,4.06902 -10.35547,12.20704 l 0,3 c 0,-8.13802 3.45211,-12.20703 10.35547,-12.20704 l 67.3086,0 c 6.90332,10e-6 10.35546,4.06902 10.35546,12.20704 l 0,-3 c 10e-6,-8.13802 -3.45212,-12.20703 -10.35546,-12.20704 l -67.3086,0 z m 98.37305,0 c -6.90334,10e-6 -10.35547,4.06902 -10.35547,12.20704 l 0,3 c 0,-8.13802 3.45212,-12.20703 10.35547,-12.20704 l 41.41992,0 C 871.54786,168.76563 875,172.83464 875,180.97266 l 0,-3 c 0,-8.13802 -3.45214,-12.20703 -10.35547,-12.20704 l -41.41992,0 z m -792.107422,12.20704 -5.177735,18.31054 0.847656,0 4.330079,-15.31054 20.658203,0 c 6.90335,0 10.355468,4.06901 10.355468,12.20703 l 0,-3 c 0,-8.13802 -3.452115,-12.20703 -10.355468,-12.20703 l -20.658203,0 z m 802.462892,12.20703 0,3 25.88672,0 0,-3 -25.88672,0 z m -818.046877,24.41406 0,3 31.064453,0 0,-3 -31.064453,0 z m 119.082027,0 0,3 25.04102,0 0.84766,-3 -25.88868,0 z m 82.83985,0 -5.17774,18.31055 0.84766,0 4.33008,-15.31055 20.71094,0 0,-3 -20.71094,0 z m 72.48633,0 -5.17774,18.31055 0.84766,0 4.33008,-15.31055 20.70898,0 0,-3 -20.70898,0 z m 186.39062,0 0,3 25.03906,0 0.84766,-3 -25.88672,0 z m 108.72656,0 0,3 25.03907,0 0.84961,-3 -25.88868,0 z m 72.48633,0 0,3 25.03711,0 0.84961,-3 -25.88672,0 z m 170.85742,0 0,3 35.35938,0 0.83203,-3 -36.19141,0 z m -341.71679,24.41406 -5.17578,18.31055 0.84765,0 4.32813,-15.31055 20.71093,0 0,-3 -20.71093,0 z m 108.72851,0 -5.17773,18.31055 0.84765,0 4.33008,-15.31055 20.71094,0 0,-3 -20.71094,0 z"
       transform="translate(-76.303575,330.5495)"
       id="path5902-6"
       inkscape:connector-curvature="0" />
    <circle
       style="fill:#a1b1b1;fill-opacity:1;stroke:none;stroke-width:2;stroke-linecap:round;stroke-linejoin:round;stroke-miterlimit:4;stroke-dasharray:none;stroke-opacity:1"
       id="path6065-7-0-7"
       cx="26.696424"
       cy="506.86725"
       r="3" />
    <circle
       style="fill:#a1b1b1;fill-opacity:1;stroke:none;stroke-width:2;stroke-linecap:round;stroke-linejoin:round;stroke-miterlimit:4;stroke-dasharray:none;stroke-opacity:1"
       id="path6065-7-0-8"
       cx="97.696426"
       cy="555.86725"
       r="3" />
    <circle
       style="fill:#a1b1b1;fill-opacity:1;stroke:none;stroke-width:2;stroke-linecap:round;stroke-linejoin:round;stroke-miterlimit:4;stroke-dasharray:none;stroke-opacity:1"
       id="path6065-7-0-73"
       cx="123.69643"
       cy="579.86725"
       r="3" />
    <circle
       style="fill:#a1b1b1;fill-opacity:1;stroke:none;stroke-width:2;stroke-linecap:round;stroke-linejoin:round;stroke-miterlimit:4;stroke-dasharray:none;stroke-opacity:1"
       id="path6065-7-0-77"
       cx="123.69643"
       cy="506.86725"
       r="3" />
    <circle
       style="fill:#a1b1b1;fill-opacity:1;stroke:none;stroke-width:2;stroke-linecap:round;stroke-linejoin:round;stroke-miterlimit:4;stroke-dasharray:none;stroke-opacity:1"
       id="path6065-7-0-4"
       cx="169.69643"
       cy="506.86725"
       r="3" />
    <circle
       style="fill:#a1b1b1;fill-opacity:1;stroke:none;stroke-width:2;stroke-linecap:round;stroke-linejoin:round;stroke-miterlimit:4;stroke-dasharray:none;stroke-opacity:1"
       id="path6065-7-0-75"
       cx="195.69643"
       cy="579.86725"
       r="3" />
    <circle
       style="fill:#a1b1b1;fill-opacity:1;stroke:none;stroke-width:2;stroke-linecap:round;stroke-linejoin:round;stroke-miterlimit:4;stroke-dasharray:none;stroke-opacity:1"
       id="path6065-7-0-89"
       cx="195.69643"
       cy="506.86725"
       r="3" />
    <circle
       style="fill:#a1b1b1;fill-opacity:1;stroke:none;stroke-width:2;stroke-linecap:round;stroke-linejoin:round;stroke-miterlimit:4;stroke-dasharray:none;stroke-opacity:1"
       id="path6065-7-0-5"
       cx="241.69643"
       cy="506.86725"
       r="3" />
    <circle
       style="fill:#a1b1b1;fill-opacity:1;stroke:none;stroke-width:2;stroke-linecap:round;stroke-linejoin:round;stroke-miterlimit:4;stroke-dasharray:none;stroke-opacity:1"
       id="path6065-7-0-53"
       cx="267.69641"
       cy="555.86725"
       r="3" />
    <circle
       style="fill:#a1b1b1;fill-opacity:1;stroke:none;stroke-width:2;stroke-linecap:round;stroke-linejoin:round;stroke-miterlimit:4;stroke-dasharray:none;stroke-opacity:1"
       id="path6065-7-0-42"
       cx="267.69641"
       cy="482.86725"
       r="3" />
    <circle
       style="fill:#a1b1b1;fill-opacity:1;stroke:none;stroke-width:2;stroke-linecap:round;stroke-linejoin:round;stroke-miterlimit:4;stroke-dasharray:none;stroke-opacity:1"
       id="path6065-7-0-70"
       cx="293.69641"
       cy="555.86725"
       r="3" />
    <circle
       style="fill:#a1b1b1;fill-opacity:1;stroke:none;stroke-width:2;stroke-linecap:round;stroke-linejoin:round;stroke-miterlimit:4;stroke-dasharray:none;stroke-opacity:1"
       id="path6065-7-0-41"
       cx="293.69641"
       cy="506.86725"
       r="3" />
    <circle
       style="fill:#a1b1b1;fill-opacity:1;stroke:none;stroke-width:2;stroke-linecap:round;stroke-linejoin:round;stroke-miterlimit:4;stroke-dasharray:none;stroke-opacity:1"
       id="path6065-7-0-71"
       cx="319.69641"
       cy="555.86725"
       r="3" />
    <circle
       style="fill:#a1b1b1;fill-opacity:1;stroke:none;stroke-width:2;stroke-linecap:round;stroke-linejoin:round;stroke-miterlimit:4;stroke-dasharray:none;stroke-opacity:1"
       id="path6065-7-0-6"
       cx="319.69641"
       cy="506.61725"
       r="3" />
    <circle
       style="fill:#a1b1b1;fill-opacity:1;stroke:none;stroke-width:2;stroke-linecap:round;stroke-linejoin:round;stroke-miterlimit:4;stroke-dasharray:none;stroke-opacity:1"
       id="path6065-7-0-774"
       cx="366.69641"
       cy="506.86725"
       r="3" />
    <circle
       style="fill:#a1b1b1;fill-opacity:1;stroke:none;stroke-width:2;stroke-linecap:round;stroke-linejoin:round;stroke-miterlimit:4;stroke-dasharray:none;stroke-opacity:1"
       id="path6065-7-0-79"
       cx="366.69641"
       cy="555.86725"
       r="3" />
    <circle
       style="fill:#a1b1b1;fill-opacity:1;stroke:none;stroke-width:2;stroke-linecap:round;stroke-linejoin:round;stroke-miterlimit:4;stroke-dasharray:none;stroke-opacity:1"
       id="path6065-7-0-2"
       cx="438.69641"
       cy="579.86725"
       r="3" />
    <circle
       style="fill:#a1b1b1;fill-opacity:1;stroke:none;stroke-width:2;stroke-linecap:round;stroke-linejoin:round;stroke-miterlimit:4;stroke-dasharray:none;stroke-opacity:1"
       id="path6065-7-0-3"
       cx="438.69641"
       cy="506.86725"
       r="3" />
    <circle
       style="fill:#a1b1b1;fill-opacity:1;stroke:none;stroke-width:2;stroke-linecap:round;stroke-linejoin:round;stroke-miterlimit:4;stroke-dasharray:none;stroke-opacity:1"
       id="path6065-7-0-0"
       cx="392.69641"
       cy="506.86725"
       r="3" />
    <circle
       style="fill:#a1b1b1;fill-opacity:1;stroke:none;stroke-width:2;stroke-linecap:round;stroke-linejoin:round;stroke-miterlimit:4;stroke-dasharray:none;stroke-opacity:1"
       id="path6065-7-0-23"
       cx="501.69641"
       cy="506.86725"
       r="3" />
    <circle
       style="fill:#a1b1b1;fill-opacity:1;stroke:none;stroke-width:2;stroke-linecap:round;stroke-linejoin:round;stroke-miterlimit:4;stroke-dasharray:none;stroke-opacity:1"
       id="path6065-7-0-20"
       cx="547.69641"
       cy="506.86725"
       r="3" />
    <circle
       style="fill:#a1b1b1;fill-opacity:1;stroke:none;stroke-width:2;stroke-linecap:round;stroke-linejoin:round;stroke-miterlimit:4;stroke-dasharray:none;stroke-opacity:1"
       id="path6065-7-0-05"
       cx="547.69641"
       cy="579.86725"
       r="3" />
    <circle
       style="fill:#a1b1b1;fill-opacity:1;stroke:none;stroke-width:2;stroke-linecap:round;stroke-linejoin:round;stroke-miterlimit:4;stroke-dasharray:none;stroke-opacity:1"
       id="path6065-7-0-81"
       cx="620.69641"
       cy="555.86725"
       r="3" />
    <circle
       style="fill:#a1b1b1;fill-opacity:1;stroke:none;stroke-width:2;stroke-linecap:round;stroke-linejoin:round;stroke-miterlimit:4;stroke-dasharray:none;stroke-opacity:1"
       id="path6065-7-0-76"
       cx="646.69641"
       cy="506.86725"
       r="3" />
    <circle
       style="fill:#a1b1b1;fill-opacity:1;stroke:none;stroke-width:2;stroke-linecap:round;stroke-linejoin:round;stroke-miterlimit:4;stroke-dasharray:none;stroke-opacity:1"
       id="path6065-7-0-50"
       cx="718.69641"
       cy="506.86725"
       r="3" />
    <circle
       style="fill:#a1b1b1;fill-opacity:1;stroke:none;stroke-width:2;stroke-linecap:round;stroke-linejoin:round;stroke-miterlimit:4;stroke-dasharray:none;stroke-opacity:1"
       id="path6065-7-0-04"
       cx="682.69641"
       cy="555.86725"
       r="3" />
    <circle
       style="fill:#a1b1b1;fill-opacity:1;stroke:none;stroke-width:2;stroke-linecap:round;stroke-linejoin:round;stroke-miterlimit:4;stroke-dasharray:none;stroke-opacity:1"
       id="path6065-7-0-78"
       cx="776.69641"
       cy="555.86725"
       r="3" />
    <circle
       style="fill:#a1b1b1;fill-opacity:1;stroke:none;stroke-width:2;stroke-linecap:round;stroke-linejoin:round;stroke-miterlimit:4;stroke-dasharray:none;stroke-opacity:1"
       id="path6065-7-0-737"
       cx="791.69641"
       cy="506.86725"
       r="3" />
    <circle
       style="fill:#a1b1b1;fill-opacity:1;stroke:none;stroke-width:2;stroke-linecap:round;stroke-linejoin:round;stroke-miterlimit:4;stroke-dasharray:none;stroke-opacity:1"
       id="path6065-7-0-21"
       cx="744.69641"
       cy="506.86725"
       r="3" />
  </g>
</svg>
