<?xml version="1.0" encoding="UTF-8" standalone="no"?>
<!-- Created with Inkscape (http://www.inkscape.org/) -->

<svg
   xmlns:dc="http://purl.org/dc/elements/1.1/"
   xmlns:cc="http://creativecommons.org/ns#"
   xmlns:rdf="http://www.w3.org/1999/02/22-rdf-syntax-ns#"
   xmlns:svg="http://www.w3.org/2000/svg"
   xmlns="http://www.w3.org/2000/svg"
   xmlns:sodipodi="http://sodipodi.sourceforge.net/DTD/sodipodi-0.dtd"
   xmlns:inkscape="http://www.inkscape.org/namespaces/inkscape"
   width="282.92596mm"
   height="55.598881mm"
   viewBox="0 0 1002.4936 197.00392"
   id="svg2"
   version="1.1"
   inkscape:version="0.91 r13725"
   sodipodi:docname="logo.svg"
   inkscape:export-filename="E:\Tiger\OneDrive\Manipulator\Assets\Sprites\UI\logo.png"
   inkscape:export-xdpi="90"
   inkscape:export-ydpi="90">
  <defs
     id="defs4">
    <filter
       style="color-interpolation-filters:sRGB"
       inkscape:label="Drop Shadow"
       id="filter5354">
      <feFlood
         flood-opacity="0.2"
         flood-color="rgb(38,50,56)"
         result="flood"
         id="feFlood5356" />
      <feComposite
         in="flood"
         in2="SourceGraphic"
         operator="in"
         result="composite1"
         id="feComposite5358" />
      <feGaussianBlur
         in="composite1"
         stdDeviation="4"
         result="blur"
         id="feGaussianBlur5360" />
      <feOffset
         dx="0"
         dy="4"
         result="offset"
         id="feOffset5362" />
      <feComposite
         in="SourceGraphic"
         in2="offset"
         operator="over"
         result="composite2"
         id="feComposite5364" />
    </filter>
    <filter
       style="color-interpolation-filters:sRGB"
       inkscape:label="Drop Shadow"
       id="filter5366">
      <feFlood
         flood-opacity="0.2"
         flood-color="rgb(38,50,56)"
         result="flood"
         id="feFlood5368" />
      <feComposite
         in="flood"
         in2="SourceGraphic"
         operator="in"
         result="composite1"
         id="feComposite5370" />
      <feGaussianBlur
         in="composite1"
         stdDeviation="4"
         result="blur"
         id="feGaussianBlur5372" />
      <feOffset
         dx="0"
         dy="4"
         result="offset"
         id="feOffset5374" />
      <feComposite
         in="SourceGraphic"
         in2="offset"
         operator="over"
         result="composite2"
         id="feComposite5376" />
    </filter>
    <filter
       style="color-interpolation-filters:sRGB"
       inkscape:label="Drop Shadow"
       id="filter5428">
      <feFlood
         flood-opacity="0.2"
         flood-color="rgb(38,50,56)"
         result="flood"
         id="feFlood5430" />
      <feComposite
         in="flood"
         in2="SourceGraphic"
         operator="in"
         result="composite1"
         id="feComposite5432" />
      <feGaussianBlur
         in="composite1"
         stdDeviation="4"
         result="blur"
         id="feGaussianBlur5434" />
      <feOffset
         dx="0"
         dy="4"
         result="offset"
         id="feOffset5436" />
      <feComposite
         in="SourceGraphic"
         in2="offset"
         operator="over"
         result="composite2"
         id="feComposite5438" />
    </filter>
  </defs>
  <sodipodi:namedview
     id="base"
     pagecolor="#ffffff"
     bordercolor="#666666"
     borderopacity="1.0"
     inkscape:pageopacity="0.0"
     inkscape:pageshadow="2"
     inkscape:zoom="1.4142136"
     inkscape:cx="496.98173"
     inkscape:cy="105.71192"
     inkscape:document-units="px"
     inkscape:current-layer="layer1"
     showgrid="false"
     fit-margin-top="0"
     fit-margin-left="0"
     fit-margin-right="0"
     fit-margin-bottom="0"
     inkscape:window-width="1920"
     inkscape:window-height="1017"
     inkscape:window-x="1432"
     inkscape:window-y="316"
     inkscape:window-maximized="1" />
  <metadata
     id="metadata7">
    <rdf:RDF>
      <cc:Work
         rdf:about="">
        <dc:format>image/svg+xml</dc:format>
        <dc:type
           rdf:resource="http://purl.org/dc/dcmitype/StillImage" />
        <dc:title></dc:title>
      </cc:Work>
    </rdf:RDF>
  </metadata>
  <g
     inkscape:label="Layer 1"
     inkscape:groupmode="layer"
     id="layer1"
     transform="translate(69.635128,-893.90723)">
    <g
       id="g5469"
       transform="translate(-119.99999,0)">
      <rect
         style="fill:#94a2b1;fill-opacity:1;stroke:none;stroke-width:2;stroke-linecap:round;stroke-linejoin:round;stroke-miterlimit:4;stroke-dasharray:none;stroke-opacity:1"
         id="rect5471"
         width="40"
         height="32"
         x="326"
         y="976.42462" />
      <path
         style="fill:#a4b4c6;fill-opacity:1;stroke:none;stroke-width:2;stroke-linecap:round;stroke-linejoin:round;stroke-miterlimit:4;stroke-dasharray:none;stroke-opacity:1"
         d="m 326,43.943359 0,8 28,0 0,24 12,0 0,-32 -12,0 -28,0 z"
         transform="translate(-3.051758e-5,932.4822)"
         id="path5473"
         inkscape:connector-curvature="0" />
      <rect
         style="fill:#bbcadb;fill-opacity:1;stroke:none;stroke-width:2;stroke-linecap:round;stroke-linejoin:round;stroke-miterlimit:4;stroke-dasharray:none;stroke-opacity:1"
         id="rect5475"
         width="12"
         height="8"
         x="354"
         y="976.42462" />
    </g>
    <path
       inkscape:connector-curvature="0"
       style="font-style:normal;font-variant:normal;font-weight:normal;font-stretch:normal;font-size:180px;line-height:125%;font-family:Loaded;-inkscape-font-specification:Loaded;letter-spacing:0px;word-spacing:0px;fill:#80d4ba;fill-opacity:1;stroke:none;stroke-width:1px;stroke-linecap:butt;stroke-linejoin:miter;stroke-opacity:1;filter:url(#filter5366)"
       d="m 668.79509,922.4821 -19.53906,19.85558 0,100.41412 22.47265,19.2503 151.10742,0 0,-53.3734 36.33985,53.3734 47.90039,0 0,-139.51989 -47.90039,0 0,54.10156 -36.33985,-54.10156 -48.06054,0 0,17.64453 -18.20118,-17.64453 z m 27.28125,47.53917 34.35937,0 0,44.62113 -34.35937,0 z"
       id="path5346-5-2"
       sodipodi:nodetypes="ccccccccccccccccccccc" />
    <g
       id="g5451"
       transform="translate(-39.999983,0)">
      <rect
         style="fill:#94a2b1;fill-opacity:1;stroke:none;stroke-width:2;stroke-linecap:round;stroke-linejoin:round;stroke-miterlimit:4;stroke-dasharray:none;stroke-opacity:1"
         id="rect5453"
         width="40"
         height="32"
         x="326"
         y="976.42462" />
      <path
         style="fill:#a4b4c6;fill-opacity:1;stroke:none;stroke-width:2;stroke-linecap:round;stroke-linejoin:round;stroke-miterlimit:4;stroke-dasharray:none;stroke-opacity:1"
         d="m 326,43.943359 0,8 28,0 0,24 12,0 0,-32 -12,0 -28,0 z"
         transform="translate(-3.051758e-5,932.4822)"
         id="path5455"
         inkscape:connector-curvature="0" />
      <rect
         style="fill:#bbcadb;fill-opacity:1;stroke:none;stroke-width:2;stroke-linecap:round;stroke-linejoin:round;stroke-miterlimit:4;stroke-dasharray:none;stroke-opacity:1"
         id="rect5457"
         width="12"
         height="8"
         x="354"
         y="976.42462" />
    </g>
    <g
       id="g5446">
      <rect
         y="976.42462"
         x="326"
         height="32"
         width="40"
         id="rect6083"
         style="fill:#94a2b1;fill-opacity:1;stroke:none;stroke-width:2;stroke-linecap:round;stroke-linejoin:round;stroke-miterlimit:4;stroke-dasharray:none;stroke-opacity:1" />
      <path
         id="rect6083-8"
         transform="translate(-3.051758e-5,932.4822)"
         d="m 326,43.943359 0,8 28,0 0,24 12,0 0,-32 -12,0 -28,0 z"
         style="fill:#a4b4c6;fill-opacity:1;stroke:none;stroke-width:2;stroke-linecap:round;stroke-linejoin:round;stroke-miterlimit:4;stroke-dasharray:none;stroke-opacity:1"
         inkscape:connector-curvature="0" />
      <rect
         y="976.42462"
         x="354"
         height="8"
         width="12"
         id="rect6083-8-7"
         style="fill:#bbcadb;fill-opacity:1;stroke:none;stroke-width:2;stroke-linecap:round;stroke-linejoin:round;stroke-miterlimit:4;stroke-dasharray:none;stroke-opacity:1" />
    </g>
    <g
       transform="translate(-79.999985,0)"
       id="g5459">
      <rect
         y="976.42462"
         x="326"
         height="32"
         width="40"
         id="rect5461"
         style="fill:#94a2b1;fill-opacity:1;stroke:none;stroke-width:2;stroke-linecap:round;stroke-linejoin:round;stroke-miterlimit:4;stroke-dasharray:none;stroke-opacity:1" />
      <path
         inkscape:connector-curvature="0"
         id="path5463"
         transform="translate(-3.051758e-5,932.4822)"
         d="m 326,43.943359 0,8 28,0 0,24 12,0 0,-32 -12,0 -28,0 z"
         style="fill:#a4b4c6;fill-opacity:1;stroke:none;stroke-width:2;stroke-linecap:round;stroke-linejoin:round;stroke-miterlimit:4;stroke-dasharray:none;stroke-opacity:1" />
      <rect
         y="976.42462"
         x="354"
         height="8"
         width="12"
         id="rect5465"
         style="fill:#bbcadb;fill-opacity:1;stroke:none;stroke-width:2;stroke-linecap:round;stroke-linejoin:round;stroke-miterlimit:4;stroke-dasharray:none;stroke-opacity:1" />
    </g>
    <path
       style="font-style:normal;font-variant:normal;font-weight:normal;font-stretch:normal;font-size:180px;line-height:125%;font-family:Loaded;-inkscape-font-specification:Loaded;letter-spacing:0px;word-spacing:0px;fill:#80d4ba;fill-opacity:1;stroke:none;stroke-width:1px;stroke-linecap:butt;stroke-linejoin:miter;stroke-opacity:1;filter:url(#filter5354)"
       d="m 427.72266,0 -82.17383,82.097656 82.15625,82.072264 45.14648,-45.10156 0,32.60937 47,0 0,-46.08007 30.03906,0 0,46.08007 46.46094,0 0,-139.519527 -46.46094,0 0,46.080078 -30.03906,0 0,-46.080078 -47,0 0,32.693359 z M 0,12.158203 0,132.76953 l 18.200266,18.90835 84.239184,-1.5e-4 -4.5e-4,-17.44921 15.8294,17.44921 109.20621,0 3.9e-4,-92.339839 38.55625,0 0,92.339839 47,0 0,-92.339839 40.85937,0 0,-47.180015 -126.41562,0 0,20.840171 -19.85977,-20.840171 -107.41992,0 -3.1e-4,92.699544 -53.374688,0 0,-92.699217 z m 428.44727,46.037106 c 9.191,0.14041 19.824,9.550601 23.98632,18.09375 l 20.41797,-16.598726 0,44.883887 c 0,0 -13.61223,-13.600045 -20.41797,-20.400395 -1.26925,18.710155 -26.93088,28.752055 -40.58789,16.160155 -14.47057,-11.532429 -8.11541,-39.019367 10.64063,-41.667967 2.12905,-0.426199 3.99572,-0.526541 5.96094,-0.470704 z"
       transform="translate(-9.9999695,910.32422)"
       id="path5346"
       inkscape:connector-curvature="0"
       sodipodi:nodetypes="cccccccccccccccccccccccccccccccccccccccccccccccc" />
    <path
       style="font-style:normal;font-variant:normal;font-weight:normal;font-stretch:normal;font-size:medium;line-height:125%;font-family:Loaded;-inkscape-font-specification:Loaded;letter-spacing:0px;word-spacing:0px;fill:#758391;fill-opacity:1;stroke:none;stroke-width:1px;stroke-linecap:butt;stroke-linejoin:miter;stroke-opacity:1"
       inkscape:connector-curvature="0"
       id="path5407"
       d="m 82.44,1025.1822 0,26.82 -69.12,0 -13.32,-13.5 0,-106.02 26.82,0 0,92.7 55.62,0 0,0 z" />
    <path
       style="font-style:normal;font-variant:normal;font-weight:normal;font-stretch:normal;font-size:medium;line-height:125%;font-family:Loaded;-inkscape-font-specification:Loaded;letter-spacing:0px;word-spacing:0px;fill:#758391;fill-opacity:1;stroke:none;stroke-width:1px;stroke-linecap:butt;stroke-linejoin:miter;stroke-opacity:1"
       sodipodi:nodetypes="ccccccccccccccc"
       inkscape:connector-curvature="0"
       id="path5409"
       d="m 207.47531,1052.0022 -93.6,0 -13.68,-14.22 0,-57.78 61.74,0 0,26.1 -35.82,0 0,20.16 53.46,0 0,-65.7 -79.38,0 0,-26.1 93.41967,0 13.86033,13.86001 z" />
    <path
       style="font-style:normal;font-variant:normal;font-weight:normal;font-stretch:normal;font-size:medium;line-height:125%;font-family:Loaded;-inkscape-font-specification:Loaded;letter-spacing:0px;word-spacing:0px;fill:#758391;fill-opacity:1;stroke:none;stroke-width:1px;stroke-linecap:butt;stroke-linejoin:miter;stroke-opacity:1"
       inkscape:connector-curvature="0"
       id="path5411"
       d="m 333.89156,959.6622 -40.86,0 0,92.34 -27,0 0,-92.34 -40.68,0 0,-27 108.54,0 0,27 z" />
    <path
       style="font-style:normal;font-variant:normal;font-weight:normal;font-stretch:normal;font-size:medium;line-height:125%;font-family:Loaded;-inkscape-font-specification:Loaded;letter-spacing:0px;word-spacing:0px;fill:#758391;fill-opacity:1;stroke:none;stroke-width:1px;stroke-linecap:butt;stroke-linejoin:miter;stroke-opacity:1"
       inkscape:connector-curvature="0"
       id="path5415"
       d="m 576.35156,1052.0022 -26.46,0 0,-119.52 26.46,0 0,119.52 z m -42.12,-46.08 -34.38,0 0,46.08 -27,0 0,-119.52 27,0 0,46.08 34.38,0 0,27.36 z" />
    <path
       style="font-style:normal;font-variant:normal;font-weight:normal;font-stretch:normal;font-size:medium;line-height:125%;font-family:Loaded;-inkscape-font-specification:Loaded;letter-spacing:0px;word-spacing:0px;fill:#758391;fill-opacity:1;stroke:none;stroke-width:1px;stroke-linecap:butt;stroke-linejoin:miter;stroke-opacity:1"
       inkscape:connector-curvature="0"
       id="path5417"
       d="m 704.97619,1052.0022 0,-27.36 35.46,0 0,-64.62 -54.36,0 0,91.98 -13.14,0 -13.68,-13.68 0,-91.8 13.68,-13.68 80.64,0 13.5,13.68 0,105.48 -62.1,0 0,0 z" />
    <path
       style="font-style:normal;font-variant:normal;font-weight:normal;font-stretch:normal;font-size:medium;line-height:125%;font-family:Loaded;-inkscape-font-specification:Loaded;letter-spacing:0px;word-spacing:0px;fill:#758391;fill-opacity:1;stroke:none;stroke-width:1px;stroke-linecap:butt;stroke-linejoin:miter;stroke-opacity:1"
       inkscape:connector-curvature="0"
       id="path5419"
       d="m 869.17556,1052.3622 -56.34,-73.08 0,73.08 -27.9,0 0,-119.88 27.9,0 56.34,73.62 0,-73.62 27.9,0 0,119.88 -27.9,0 z" />
    <path
       style="fill:#758391;fill-opacity:1;stroke:none;stroke-width:2;stroke-linecap:round;stroke-linejoin:round;stroke-miterlimit:4;stroke-dasharray:none;stroke-opacity:1"
       d="m 417.70487,924.48223 -68.00488,67.94003 68.00488,67.93994 38.25274,-38.2163 -10.34909,-10.3388 c -6.3512,9.1312 -16.77363,14.5789 -27.90365,14.5851 -18.77903,0 -34.00243,-15.2084 -34.00243,-33.96994 0,-18.76105 15.2234,-33.97001 34.00243,-33.97001 11.12634,0 21.53969,5.47427 27.88156,14.60768 l 10.37118,-10.36142 z"
       id="rect6575"
       inkscape:connector-curvature="0"
       sodipodi:nodetypes="ccccccscccc" />
  </g>
</svg>
